# Blender 3.5.1
# www.blender.org
mtllib water.mtl
o 立方体.001
v -3.648040 0.018123 10.311919
v -3.687259 0.501754 10.214364
v -3.687259 0.020439 -10.055480
v -3.648040 0.504071 -10.153035
v -1.302968 0.020439 10.214364
v -1.342187 0.504071 10.311919
v -1.342187 0.018123 -10.153035
v -1.302968 0.501754 -10.055480
vn -0.9968 -0.0804 0.0019
vn -0.0410 -0.1944 -0.9801
vn 0.9968 -0.0804 -0.0019
vn 0.0410 -0.1944 0.9801
vn -0.0010 -1.0000 -0.0001
vn 0.0010 1.0000 -0.0001
vn -0.9968 0.0804 -0.0019
vn 0.0410 0.1944 -0.9801
vn 0.9968 0.0804 0.0019
vn -0.0410 0.1944 0.9801
vn 0.0010 -1.0000 0.0001
vn -0.0010 1.0000 0.0001
vt 0.008621 -0.006415
vt 0.006913 0.015506
vt 0.999633 0.979437
vt 1.000618 0.003350
vt 0.998648 -0.002193
vt 0.001056 0.986030
vt 0.995726 0.004212
vt 0.007073 0.998355
vt 0.999070 0.998355
vt -0.002850 0.001039
vt -0.001865 1.006482
vt 0.989869 0.979018
vt 0.003167 0.007632
vt 0.995164 0.017398
s 0
usemtl 材质
f 2/4/1 3/8/1 1/1/1
f 4/9/2 7/13/2 3/8/2
f 8/14/3 5/11/3 7/13/3
f 6/12/4 1/2/4 5/11/4
f 7/13/5 1/3/5 3/7/5
f 4/10/6 6/12/6 8/14/6
f 2/4/7 4/9/7 3/8/7
f 4/9/8 8/14/8 7/13/8
f 8/14/9 6/12/9 5/11/9
f 6/12/10 2/5/10 1/2/10
f 7/13/11 5/11/11 1/3/11
f 4/10/12 2/6/12 6/12/12
